<svg xmlns="http://www.w3.org/2000/svg" xmlns:xlink="http://www.w3.org/1999/xlink" xml:space="preserve" version="1.1" style="shape-rendering:geometricPrecision;text-rendering:geometricPrecision;image-rendering:optimizeQuality;" viewBox="0 0 409 511.25" x="0px" y="0px" fill-rule="evenodd" clip-rule="evenodd" fill="black" width="35px"><g><path class="fil0" d="M205 54c38,0 70,31 70,70 0,38 -32,70 -70,70 -39,0 -71,-32 -71,-70 0,-39 32,-70 71,-70zm0 19c-29,0 -52,22 -52,51 0,28 23,51 52,51 28,0 51,-23 51,-51 0,-29 -23,-51 -51,-51z"/><path class="fil0" d="M205 0c112,0 204,92 204,205 0,112 -92,204 -204,204 -113,0 -205,-92 -205,-204 0,-113 92,-205 205,-205zm0 216c68,0 124,53 130,120 34,-34 55,-80 55,-131 0,-103 -83,-186 -185,-186 -103,0 -186,83 -186,186 0,51 21,97 55,131 6,-67 62,-120 131,-120zm111 136c3,-64 -47,-117 -111,-117 -65,0 -115,53 -112,117 31,24 70,38 112,38 41,0 80,-14 111,-38z"/></g></svg>
