<svg xmlns="http://www.w3.org/2000/svg" xmlns:xlink="http://www.w3.org/1999/xlink" version="1.1" x="0px" y="0px" viewBox="0 0 1024 1280" style="enable-background:new 0 0 1024 1024;" xml:space="preserve" fill="black" width="35px"><path d="M902,525c0,19-1.3,38-3.8,56.9c0.4-2.7,0.7-5.3,1.1-8c-5,36.5-14.8,72.3-29.1,106.3c1-2.4,2-4.8,3-7.2     c-8.3,19.5-17.9,38.3-29,56.3c-5.5,9-11.3,17.7-17.5,26.2c-1.5,2.1-3.1,4.2-4.7,6.3c-0.7,0.9-1.5,2.5-2.4,3.1     c-0.1,0.1,5-6.5,2.3-3c-3.5,4.5-7.1,8.9-10.7,13.2c-13.3,15.6-27.7,30.3-43,43.8c-3.9,3.5-7.9,6.8-12,10.2     c-2,1.7-4.1,3.3-6.1,4.9c-0.7,0.5-1.4,1.1-2.1,1.6c8.2-6.5,2.7-2.1,0.9-0.7c-8.4,6.3-17,12.3-25.9,18c-20,12.8-41.1,23.9-63,33.2     c2.4-1,4.8-2,7.2-3c-34,14.3-69.8,24-106.3,29.1c2.7-0.4,5.3-0.7,8-1.1c-37.7,5-76,5-113.8,0c2.7,0.4,5.3,0.7,8,1.1     c-36.5-5-72.3-14.8-106.3-29.1c2.4,1,4.8,2,7.2,3c-19.5-8.3-38.3-17.9-56.3-29c-9-5.5-17.7-11.3-26.2-17.5     c-2.1-1.5-4.2-3.1-6.3-4.7c-0.9-0.7-2.5-1.5-3.1-2.4c-0.1-0.1,6.5,5,3,2.3c-4.5-3.5-8.9-7.1-13.2-10.7     c-15.6-13.3-30.3-27.7-43.8-43c-3.5-3.9-6.8-7.9-10.2-12c-1.7-2-3.3-4.1-4.9-6.1c-0.5-0.7-1.1-1.4-1.6-2.1     c6.5,8.2,2.1,2.7,0.7,0.9c-6.3-8.4-12.3-17-18-25.9c-12.8-20-23.9-41.1-33.2-63c1,2.4,2,4.8,3,7.2c-14.3-34-24-69.8-29.1-106.3     c0.4,2.7,0.7,5.3,1.1,8c-5-37.7-5-76,0-113.8c-0.4,2.7-0.7,5.3-1.1,8c5-36.5,14.8-72.3,29.1-106.3c-1,2.4-2,4.8-3,7.2     c8.3-19.5,17.9-38.3,29-56.3c5.5-9,11.3-17.7,17.5-26.2c1.5-2.1,3.1-4.2,4.7-6.3c0.7-0.9,1.5-2.5,2.4-3.1c0.1-0.1-5,6.5-2.3,3     c3.5-4.5,7.1-8.9,10.7-13.2c13.3-15.6,27.7-30.3,43-43.8c3.9-3.5,7.9-6.8,12-10.2c2-1.7,4.1-3.3,6.1-4.9c0.7-0.5,1.4-1.1,2.1-1.6     c-8.2,6.5-2.7,2.1-0.9,0.7c8.4-6.3,17-12.3,25.9-18c20-12.8,41.1-23.9,63-33.2c-2.4,1-4.8,2-7.2,3c34-14.3,69.8-24,106.3-29.1     c-2.7,0.4-5.3,0.7-8,1.1c37.7-5,76-5,113.8,0c-2.7-0.4-5.3-0.7-8-1.1c36.5,5,72.3,14.8,106.3,29.1c-2.4-1-4.8-2-7.2-3     c19.5,8.3,38.3,17.9,56.3,29c9,5.5,17.7,11.3,26.2,17.5c2.1,1.5,4.2,3.1,6.3,4.7c0.9,0.7,2.5,1.5,3.1,2.4c0.1,0.1-6.5-5-3-2.3     c4.5,3.5,8.9,7.1,13.2,10.7c15.6,13.3,30.3,27.7,43.8,43c3.5,3.9,6.8,7.9,10.2,12c1.7,2,3.3,4.1,4.9,6.1c0.5,0.7,1.1,1.4,1.6,2.1     c-6.5-8.2-2.1-2.7-0.7-0.9c6.3,8.4,12.3,17,18,25.9c12.8,20,23.9,41.1,33.2,63c-1-2.4-2-4.8-3-7.2c14.3,34,24,69.8,29.1,106.3     c-0.4-2.7-0.7-5.3-1.1-8C900.7,487,902,506,902,525c0,15.7,13.8,30.7,30,30c16.2-0.7,30-13.2,30-30     c-0.2-91.9-28.5-183.8-81.9-258.7c-53.8-75.4-128.5-132.7-215.5-164.6C577,69.5,478.3,66.6,388.7,92.1     c-86.3,24.6-165.5,75.8-222.6,145.2c-30,36.6-53.7,76.5-71.7,120.2c-17.7,43.1-27.7,88.9-31.2,135.3     c-7,91.8,15.7,185.8,63.4,264.6c46.3,76.4,115.8,139.5,197.4,176.4c44.6,20.2,90.8,32.8,139.4,38.4c46.8,5.4,94.4,2.7,140.5-6.6     c88.4-17.9,171.1-64.2,233.3-129.4c62.4-65.4,105.5-150,119.1-239.5c3.6-23.8,5.8-47.6,5.9-71.6c0-15.7-13.8-30.7-30-30     C915.7,495.7,902,508.2,902,525z"/></g></g><g><g><path d="M330.3,555c12.1,0,24.1,0,36.2,0c28.8,0,57.6,0,86.4,0c35,0,70.1,0,105.1,0c30.3,0,60.6,0,90.9,0     c14.7,0,29.4,0.3,44.1,0c0.2,0,0.4,0,0.6,0c15.7,0,30.7-13.8,30-30c-0.7-16.3-13.2-30-30-30c-12.1,0-24.1,0-36.2,0     c-28.8,0-57.6,0-86.4,0c-35,0-70.1,0-105.1,0c-30.3,0-60.6,0-90.9,0c-14.7,0-29.4-0.3-44.1,0c-0.2,0-0.4,0-0.6,0     c-15.7,0-30.7,13.8-30,30C301.1,541.3,313.5,555,330.3,555L330.3,555z"/></g></g><g><g><path d="M542,706.7c0-12.1,0-24.1,0-36.2c0-28.8,0-57.6,0-86.4c0-35,0-70.1,0-105.1c0-30.3,0-60.6,0-90.9     c0-14.7,0.3-29.4,0-44.1c0-0.2,0-0.4,0-0.6c0-15.7-13.8-30.7-30-30c-16.3,0.7-30,13.2-30,30c0,12.1,0,24.1,0,36.2     c0,28.8,0,57.6,0,86.4c0,35,0,70.1,0,105.1c0,30.3,0,60.6,0,90.9c0,14.7-0.3,29.4,0,44.1c0,0.2,0,0.4,0,0.6     c0,15.7,13.8,30.7,30,30C528.3,735.9,542,723.5,542,706.7L542,706.7z"/></svg>
