<svg xmlns="http://www.w3.org/2000/svg" xmlns:xlink="http://www.w3.org/1999/xlink" version="1.0" x="0px" y="0px" viewBox="0 0 100 125" enable-background="new 0 0 100 100" xml:space="preserve">
  <path d="M73.9349899,47.5219154c12.9381027-0.7186317,18.6871719-16.5170975,9.7113342-25.5988693  c-5.689682-5.757164-14.8652496-5.8367882-20.6669502-0.2415695c-2.7146111,2.6174469-3.9346008-4.1356831-12.9758873-4.1356831  c-9.0446587,0-10.2612762,6.7544785-12.9772377,4.1363583c-9.3456097-9.0068722-25.009119-2.3738518-25.009119,10.8611488  c0,13.2417488,15.6682339,19.8680229,25.009119,10.8604736c2.7146111-2.6174431,3.932579,4.1370354,12.9772377,4.1370354  c9.0419617,0,10.2599258-6.7538033,12.9758873-4.135685C65.9051895,46.2256775,69.808754,47.7256966,73.9349899,47.5219154z   M76.0875168,51.3141403L76.0861664,78.365799c-0.0985184,10.7936707-52.0688705,10.7936707-52.1673889,0L23.917429,51.3141403  c-15.0420437-2.359005-21.3093376-21.1487389-10.4009533-32.187355c6.7450333-6.8239822,17.4300652-7.4542208,24.8917084-1.5297127  c6.7996902-5.4008837,16.3882141-5.3995342,23.1885796,0c12.2187958-9.7052612,30.3890839-0.9271374,30.3890839,14.9462261  C91.9858475,41.9226494,85.189537,49.8869972,76.0875168,51.3141403z M72.0888138,73.689621V51.5064507  c-3.8617249-0.2267227-7.5007782-1.6410484-10.4920502-4.016922c-6.7983398,5.4008827-16.3902397,5.3995323-23.1892548-0.0006752  c-2.990593,2.3758774-6.6296463,3.7908745-10.4913731,4.0175972V73.689621  C37.475647,68.9783554,62.5299759,68.9783554,72.0888138,73.689621z M66.4733505,75.9210968  c-9.2538414-2.368454-23.6872368-2.368454-32.9417534,0c-7.4319515,1.9015121-7.4306011,2.869133,0,4.7699738  c9.2565384,2.367775,23.685215,2.367775,32.9417534,0C73.9046249,78.7895584,73.905304,77.8226089,66.4733505,75.9210968z"/>
</svg>
