<svg xmlns="http://www.w3.org/2000/svg" xmlns:xlink="http://www.w3.org/1999/xlink" xml:space="preserve" version="1.1" style="shape-rendering:geometricPrecision;text-rendering:geometricPrecision;image-rendering:optimizeQuality;" viewBox="0 0 830 750" x="0px" y="0px" fill-rule="evenodd" clip-rule="evenodd" fill="black">
  <path d="M417 98c87,0 165,35 222,92 57,57 92,136 92,223 0,86 -35,165 -92,222 -57,57 -135,92 -222,92 -87,0 -166,-35 -222,-92 -57,-57 -93,-136 -93,-222 0,-87 36,-166 93,-223 56,-57 135,-92 222,-92zm198 116c-51,-51 -121,-82 -198,-82 -78,0 -148,31 -198,82 -51,51 -83,121 -83,199 0,77 32,147 83,198 50,51 120,82 198,82 77,0 147,-31 198,-82 51,-51 82,-121 82,-198 0,-78 -31,-148 -82,-199z"/>
  <path d="M395 506c0,-6 0,-10 0,-13 0,-17 2,-32 7,-44 3,-10 9,-19 17,-29 6,-7 16,-17 31,-30 16,-14 25,-24 30,-32 4,-8 7,-17 7,-26 0,-17 -7,-32 -20,-45 -13,-13 -30,-20 -49,-20 -19,0 -34,6 -46,18 -13,12 -21,30 -25,55l-45 -5c4,-34 16,-59 36,-77 20,-18 47,-26 79,-26 35,0 63,9 83,28 21,19 31,42 31,69 0,15 -3,30 -10,43 -8,13 -22,29 -43,48 -14,12 -24,22 -28,28 -5,6 -8,12 -10,20 -2,8 -3,21 -3,38l-42 0zm-8 88l0 -50 50 0 0 50 -50 0z"/>
</svg>
