<svg xmlns="http://www.w3.org/2000/svg" xmlns:xlink="http://www.w3.org/1999/xlink" version="1.1" x="0px" y="0px" viewBox="0 0 1000 1000" style="enable-background:new 0 0 1000 1000;" xml:space="preserve" fill="black" width="35px">
  <path d="M955.6,528.8c-5.1,5.5-13.8,8.8-21.2,8.8c-8.3,0-15.1-3.5-21.2-8.8c-0.2-0.2-0.5-0.4-0.7-0.6  c-17.2-14.5-34.1-29.3-51.1-43.9c-3.5-3-6.9-6-10.4-8.9c0,1.9,0,3.8,0,5.7v413.1c0,8.1-6.9,15-15,15c-0.3,0-0.7,0-1.1,0  c-26.2,0.7-52.4,0-78.6,0H626.5V614.3c0-1.4,0-2.7,0-4.1c-0.4-13.9-10-24.2-23.2-26.4c-1.1-0.2-2.2-0.4-3.3-0.4c-0.5,0-0.9,0-1.4,0  H438.9c-4.6,0-9.2-0.1-13.8,0c-15.3,0.3-26.8,11.3-27.4,26.6c-1,25.4,0,51.1,0,76.5v139.6c0,17.6-0.2,35.2-0.3,52.8c0,5,0,10,0,15  c0,5,0.1,10,0.2,15H188.2c-8.1,0-15-6.9-15-15V475.3c-6.7,5.8-13.4,11.5-20.1,17.3c-14.1,12.1-28.1,24.2-42.2,36.2  c-12.7,11-29.7,11.7-42.4,0c-11.3-10.4-12-32.2,0-42.4c0.2-0.2,0.5-0.4,0.7-0.6c16.6-15.1,34.1-29.3,51.1-43.9  c35.1-30.2,70.2-60.3,105.3-90.5c40.8-35,81.5-70,122.3-105c33.6-28.9,67.2-57.7,100.8-86.6c14-12.1,28.1-24.1,42.1-36.2  c5.1-5.5,13.9-8.8,21.2-8.8c5,0,9.5,1.3,13.5,3.5c0.2,0.1,0.3,0.2,0.5,0.3c2.5,1.3,4.9,3,7.2,5.1c0.2,0.2,0.5,0.4,0.7,0.6  c17.2,14.5,34.1,29.3,51.1,43.9c35.1,30.2,70.2,60.3,105.3,90.5c40.8,35,81.5,70,122.3,105c33.6,28.9,67.2,57.8,100.8,86.6  c14,12.1,28.1,24.1,42.1,36.2C968.3,497.3,965.9,517.6,955.6,528.8z"/>
</svg>
