<svg xmlns:dc="http://purl.org/dc/elements/1.1/" xmlns:cc="http://creativecommons.org/ns#" xmlns:rdf="http://www.w3.org/1999/02/22-rdf-syntax-ns#" xmlns:svg="http://www.w3.org/2000/svg" xmlns="http://www.w3.org/2000/svg" xmlns:sodipodi="http://sodipodi.sourceforge.net/DTD/sodipodi-0.dtd" xmlns:inkscape="http://www.inkscape.org/namespaces/inkscape" version="1.1" x="0px" y="0px" viewBox="0 0 100 100" fill="white">
  <g transform="translate(0,-952.36218)">
  <path style="text-indent:0;text-transform:none;direction:ltr;block-progression:tb;baseline-shift:baseline;color:#000000;enable-background:accumulate;" d="M 48.187519,959.95715 8.1875194,989.95672 c -0.7389,0.56026 -1.1923,1.47893 -1.1875,2.40621 l 0,49.99927 c 2e-4,1.5707 1.4292,2.9998 2.9999996,3 l 27,0 c 1.5708,-2e-4 2.9998,-1.4293 3,-3 l 0,-22.9991 20,0 0,22.9991 c 2e-4,1.5707 1.4292,2.9998 3,3 l 26.999999,0 c 1.5708,-2e-4 2.9998,-1.4293 3,-3 l 0,-49.99927 c 0,-0.92728 -0.4486,-1.84595 -1.1875,-2.40621 L 51.812519,959.95715 c -1.3099,-0.8318 -2.4519,-0.75402 -3.625,0 z m 1.8125,6.15616 36.999999,27.7496 0,45.49939 -21,0 0,-22.9992 c -2e-4,-1.5707 -1.4292,-2.9998 -2.999999,-3 l -26,0 c -1.5708,2e-4 -2.9998,1.4293 -3,3 l 0,22.9992 -21,0 0,-45.49939 z" fill="white" fill-opacity="1" stroke="none" marker="none" visibility="visible" display="inline" overflow="visible"/></g>
</svg>
