<svg id="Calque_1" data-name="Calque 1" xmlns="http://www.w3.org/2000/svg" viewBox="0 0 253.52 253.52"><defs><style>.cls-1{fill:#f49819;}.cls-2{fill:#fff;}</style></defs><title>Plan de travail 2</title><circle class="cls-1" cx="126.76" cy="126.76" r="126.76"/><path class="cls-2" d="M211.24,98.61A33.77,33.77,0,0,0,161.6,68.8a39.14,39.14,0,0,0-24-19.34l-.18-.06c-.61-.17-1.23-.31-1.85-.45l-1.21-.26c-.51-.1-1-.19-1.53-.26s-1.17-.16-1.76-.23c-.4,0-.79-.09-1.19-.12-1-.08-2-.13-3.07-.13s-2.2.06-3.29.15l-.77.08c-.93.1-1.86.22-2.77.39l-.41.07A39.4,39.4,0,0,0,92,68.82a33.78,33.78,0,1,0-18.71,63.43v70.51a2.81,2.81,0,0,0,2.81,2.81H177.46a2.81,2.81,0,0,0,2.82-2.81V132.25A33.82,33.82,0,0,0,211.24,98.61Zm-90.56,27.66c.79.12,1.6.22,2.4.3l.69.07c1,.07,2,.12,3,.12s2-.05,3-.12l.68-.07q1.22-.12,2.4-.3l.57-.1c.58-.1,1.17-.2,1.75-.33v51.58H118.35V125.84c.58.13,1.17.23,1.75.33Zm37.08-.28v51.43H140.87V124.16a39.06,39.06,0,0,0,9.59-5.3A33.81,33.81,0,0,0,157.76,126Zm16.89,6.24v45.19H163.39V129.29A33.55,33.55,0,0,0,174.65,132.23Zm-71.52-13.37a39.25,39.25,0,0,0,9.59,5.3v53.26H95.84V126A33.54,33.54,0,0,0,103.13,118.86ZM90.21,177.42H79V132.23a33.67,33.67,0,0,0,11.26-2.94Zm84.44,22.52H79V183.05h95.7Zm2.81-73.18a27.89,27.89,0,0,1-22.7-11.65,39.65,39.65,0,0,0,5.53-7,2.8,2.8,0,0,0-1.12-3.93h0a2.82,2.82,0,0,0-3.71,1,34,34,0,0,1-6.09,7.24,1.22,1.22,0,0,0-.19.12A33.9,33.9,0,0,1,133,120.54l-.37.06c-.82.15-1.65.25-2.48.34l-.56.06c-.93.08-1.88.13-2.81.13s-1.89,0-2.82-.13l-.56-.06c-.83-.09-1.65-.19-2.48-.34l-.36-.06a33.81,33.81,0,0,1-16.15-7.94s-.11,0-.16-.09a34.15,34.15,0,0,1-6.12-7.28,2.83,2.83,0,0,0-3.71-1h0a2.82,2.82,0,0,0-1.06,4,39.52,39.52,0,0,0,5.47,6.9,28.18,28.18,0,1,1-23-44.64,28.21,28.21,0,0,1,13.91,3.58,41.16,41.16,0,0,0-1.29,4.32,2.8,2.8,0,0,0,2.32,3.37h0a2.8,2.8,0,0,0,3.16-2.08,32.74,32.74,0,0,1,2-6c.09-.21.2-.4.28-.6.34-.72.7-1.43,1.09-2.13a2.53,2.53,0,0,1,.13-.22,34.18,34.18,0,0,1,23-16.5l.68-.13c.68-.13,1.36-.2,2-.28l.73-.08c.95-.08,1.9-.13,2.87-.13s1.8,0,2.7.11c.39,0,.77.09,1.16.13l1.43.18,1.52.28.93.2c.6.15,1.2.3,1.8.48l.47.14a33.75,33.75,0,0,1,21,18.83.87.87,0,0,1,.08.1c.41,1,.78,2,1.11,3a2.8,2.8,0,0,0,3.32,1.91h0a2.82,2.82,0,0,0,2-3.64c-.14-.42-.28-.84-.43-1.25a28.11,28.11,0,1,1,13.58,52.72Z"/><path class="cls-2" d="M92.85,196.55a.73.73,0,0,1-.2-.51v-9.18a.66.66,0,0,1,.21-.5.63.63,0,0,1,.48-.21.69.69,0,0,1,.51.21.69.69,0,0,1,.2.5v8.48H99a.7.7,0,0,1,.71.7.69.69,0,0,1-.21.51.69.69,0,0,1-.5.2H93.34A.66.66,0,0,1,92.85,196.55Z"/><path class="cls-2" d="M99,197.25H93.34a1.13,1.13,0,0,1-.85-.36,1.2,1.2,0,0,1-.34-.85v-9.18a1.19,1.19,0,0,1,.35-.86,1.23,1.23,0,0,1,1.7,0,1.19,1.19,0,0,1,.35.86v8H99a1.19,1.19,0,0,1,.86.35,1.22,1.22,0,0,1,0,1.71A1.19,1.19,0,0,1,99,197.25Zm-5.62-10.6a.18.18,0,0,0-.13.06.16.16,0,0,0-.06.15V196a.2.2,0,0,0,.06.16.16.16,0,0,0,.13.05H99a.21.21,0,0,0,.21-.21.16.16,0,0,0-.06-.14.18.18,0,0,0-.15-.06H93.55v-9a.21.21,0,0,0-.21-.21Z"/><path class="cls-2" d="M114.18,196.17a5.19,5.19,0,0,1-1.89-2,5.5,5.5,0,0,1-.7-2.76,5.44,5.44,0,0,1,.7-2.73,5.26,5.26,0,0,1,1.89-2,5,5,0,0,1,2.65-.72,4.73,4.73,0,0,1,3.31,1.16.73.73,0,0,1,.22.26.67.67,0,0,1,0,.3.58.58,0,0,1-.19.45.64.64,0,0,1-.46.17.7.7,0,0,1-.47-.17,3.27,3.27,0,0,0-2.46-.9,3.59,3.59,0,0,0-1.94.56,4,4,0,0,0-1.42,1.51,4.44,4.44,0,0,0,0,4.17,4,4,0,0,0,1.42,1.51,3.59,3.59,0,0,0,1.94.56,4.11,4.11,0,0,0,2.5-.9.75.75,0,0,1,.45-.16.54.54,0,0,1,.42.18.64.64,0,0,1,.17.48.73.73,0,0,1-.21.51,5.22,5.22,0,0,1-3.33,1.18A5,5,0,0,1,114.18,196.17Z"/><path class="cls-2" d="M116.83,197.39a5.65,5.65,0,0,1-2.91-.79,5.73,5.73,0,0,1-2.07-2.16,6.24,6.24,0,0,1,0-6,5.8,5.8,0,0,1,2.07-2.16,5.65,5.65,0,0,1,2.91-.79,5.85,5.85,0,0,1,2,.3,6,6,0,0,1,1.67,1,1.08,1.08,0,0,1,.36.44,1.35,1.35,0,0,1,.09.5,1.06,1.06,0,0,1-.36.82,1.2,1.2,0,0,1-1.58,0,3.53,3.53,0,0,0-1-.6,3.2,3.2,0,0,0-1.19-.18,3.12,3.12,0,0,0-1.68.48,3.61,3.61,0,0,0-1.24,1.33,3.86,3.86,0,0,0-.46,1.84,3.81,3.81,0,0,0,.46,1.85,3.61,3.61,0,0,0,1.24,1.33,3.33,3.33,0,0,0,3.88-.32,1.13,1.13,0,0,1,1.54.08,1.24,1.24,0,0,1-.06,1.68A5.71,5.71,0,0,1,116.83,197.39Zm0-10.87a4.59,4.59,0,0,0-2.39.65,4.89,4.89,0,0,0-1.72,1.78,5.14,5.14,0,0,0-.63,2.49,5.23,5.23,0,0,0,.63,2.52,4.74,4.74,0,0,0,1.72,1.78,4.75,4.75,0,0,0,5.4-.42.17.17,0,0,0,0-.12c0-.1,0-.13,0-.14a.23.23,0,0,0-.22.05,4.35,4.35,0,0,1-5,.35,4.48,4.48,0,0,1-1.58-1.68,4.9,4.9,0,0,1,0-4.66,4.43,4.43,0,0,1,1.58-1.69,4.1,4.1,0,0,1,2.21-.64,4.15,4.15,0,0,1,1.56.25,4.48,4.48,0,0,1,1.22.77c.13.1.19.09.27,0a.56.56,0,0,0,0-.19,5,5,0,0,0-1.45-.87A4.85,4.85,0,0,0,116.83,186.52Z"/><path class="cls-2" d="M134.5,196.55a.69.69,0,0,1-.2-.51v-9.18a.66.66,0,0,1,.2-.51.7.7,0,0,1,.5-.2h2.46a5.47,5.47,0,0,1,2.73.68,4.78,4.78,0,0,1,1.85,1.88,5.47,5.47,0,0,1,.67,2.73,5.55,5.55,0,0,1-.67,2.75,4.78,4.78,0,0,1-1.85,1.88,5.47,5.47,0,0,1-2.73.68H135A.7.7,0,0,1,134.5,196.55Zm3-1.05a4,4,0,0,0,2-.51,3.59,3.59,0,0,0,1.39-1.45,4.4,4.4,0,0,0,.49-2.1,4.32,4.32,0,0,0-.49-2.08,3.51,3.51,0,0,0-1.39-1.44,3.86,3.86,0,0,0-2-.52h-1.75v8.1Z"/><path class="cls-2" d="M137.46,197.25H135a1.17,1.17,0,0,1-.85-.35,1.19,1.19,0,0,1-.35-.86v-9.18a1.18,1.18,0,0,1,1.2-1.21h2.46a5.85,5.85,0,0,1,3,.75,5.17,5.17,0,0,1,2,2.07,6.08,6.08,0,0,1,.73,3,6.16,6.16,0,0,1-.73,3,5.26,5.26,0,0,1-2,2.08A6,6,0,0,1,137.46,197.25ZM135,186.65a.19.19,0,0,0-.15.06s0,.06,0,.15V196a.19.19,0,0,0,0,.15.19.19,0,0,0,.15.06h2.46a5,5,0,0,0,2.48-.61,4.4,4.4,0,0,0,1.67-1.7,5.49,5.49,0,0,0,0-5,4.35,4.35,0,0,0-1.67-1.68,4.93,4.93,0,0,0-2.48-.62Zm2.46,9.35h-2.25v-9.1h2.25a4.5,4.5,0,0,1,2.26.58,4.16,4.16,0,0,1,1.58,1.64,4.82,4.82,0,0,1,.55,2.32,4.9,4.9,0,0,1-.55,2.34,4.16,4.16,0,0,1-1.58,1.64A4.37,4.37,0,0,1,137.46,196Zm-1.25-1h1.25a3.41,3.41,0,0,0,1.76-.45,3,3,0,0,0,1.2-1.24,3.94,3.94,0,0,0,.43-1.87,3.86,3.86,0,0,0-.43-1.85,3.05,3.05,0,0,0-1.2-1.24,3.41,3.41,0,0,0-1.76-.45h-1.25Z"/><path class="cls-2" d="M158.41,196.17a5.19,5.19,0,0,1-1.89-2,5.6,5.6,0,0,1-.69-2.76,5.54,5.54,0,0,1,.69-2.73,5.26,5.26,0,0,1,1.89-2,5.11,5.11,0,0,1,2.66-.72,5.25,5.25,0,0,1,1.78.27,5.55,5.55,0,0,1,1.53.89.73.73,0,0,1,.22.26.85.85,0,0,1,.05.3.59.59,0,0,1-.2.45.63.63,0,0,1-.45.17.74.74,0,0,1-.48-.17,3.89,3.89,0,0,0-1.08-.69,3.76,3.76,0,0,0-1.37-.21,3.6,3.6,0,0,0-1.95.56,4,4,0,0,0-1.41,1.51,4.44,4.44,0,0,0,0,4.17,4,4,0,0,0,1.41,1.51,3.6,3.6,0,0,0,1.95.56,4.06,4.06,0,0,0,2.49-.9.8.8,0,0,1,.45-.16.57.57,0,0,1,.43.18.69.69,0,0,1,.17.48.7.7,0,0,1-.22.51,5.17,5.17,0,0,1-3.32,1.18A5.11,5.11,0,0,1,158.41,196.17Z"/><path class="cls-2" d="M161.07,197.39a5.6,5.6,0,0,1-2.91-.79,5.75,5.75,0,0,1-2.08-2.16,6.1,6.1,0,0,1-.75-3,5.94,5.94,0,0,1,.76-3,5.72,5.72,0,0,1,2.07-2.16,5.6,5.6,0,0,1,2.91-.79,5.75,5.75,0,0,1,2,.3,5.82,5.82,0,0,1,1.67,1,1.11,1.11,0,0,1,.37.44,1.35,1.35,0,0,1,.09.5,1.06,1.06,0,0,1-.36.82,1.2,1.2,0,0,1-1.58,0,3.73,3.73,0,0,0-1-.6,3.18,3.18,0,0,0-1.18-.18,3.07,3.07,0,0,0-1.68.48,3.53,3.53,0,0,0-1.24,1.33,3.75,3.75,0,0,0-.46,1.84,3.71,3.71,0,0,0,.46,1.85,3.53,3.53,0,0,0,1.24,1.33,3.31,3.31,0,0,0,3.87-.32,1.14,1.14,0,0,1,1.55.08,1.18,1.18,0,0,1,.3.82,1.22,1.22,0,0,1-.36.86A5.73,5.73,0,0,1,161.07,197.39Zm0-10.87a4.62,4.62,0,0,0-2.4.65A4.79,4.79,0,0,0,157,189a5,5,0,0,0-.63,2.49A5.12,5.12,0,0,0,157,194a4.72,4.72,0,0,0,7.12,1.36.24.24,0,0,0,0-.12c0-.1,0-.13,0-.14a.24.24,0,0,0-.22.05,4.33,4.33,0,0,1-5,.35,4.5,4.5,0,0,1-1.59-1.68,5,5,0,0,1,0-4.66,4.46,4.46,0,0,1,1.59-1.69,4.42,4.42,0,0,1,3.76-.39,4.38,4.38,0,0,1,1.23.77c.12.1.18.09.27,0s0-.18,0-.19a4.91,4.91,0,0,0-1.45-.87A4.79,4.79,0,0,0,161.07,186.52Z"/><path class="cls-2" d="M125.69,75.63l-2.4,7.44-7.82,0a.85.85,0,0,0-.49,1.54l6.33,4.58-2.44,7.43a.85.85,0,0,0,1.31,1l6.31-4.61,6.32,4.61a.84.84,0,0,0,1.3-.94l-2.43-7.44L138,84.6a.85.85,0,0,0-.5-1.54H129.7l-2.39-7.44A.85.85,0,0,0,125.69,75.63Z"/><path class="cls-2" d="M72.89,89.63,71,95.55l-6.22,0a.68.68,0,0,0-.4,1.22l5,3.65-1.94,5.91a.67.67,0,0,0,1,.75l5-3.66,5,3.67a.67.67,0,0,0,1-.76l-1.93-5.91,5-3.64a.67.67,0,0,0-.39-1.22H76.08l-1.91-5.92A.67.67,0,0,0,72.89,89.63Z"/><path class="cls-2" d="M179.45,89.63l-1.91,5.92-6.22,0a.67.67,0,0,0-.39,1.22l5,3.65L174,106.31a.67.67,0,0,0,1,.75l5-3.66,5,3.67a.67.67,0,0,0,1-.76l-1.93-5.91,5-3.64a.67.67,0,0,0-.39-1.22h-6.22l-1.91-5.92A.67.67,0,0,0,179.45,89.63Z"/></svg>