<svg xmlns="http://www.w3.org/2000/svg" viewBox="0 0 96 120" x="0px" y="0px" fill="white">
  <g><path d="M76.5,16h-6V10a1.9988,1.9988,0,0,0-2-2h-44a6.0066,6.0066,0,0,0-6,6V82a6.0066,6.0066,0,0,0,6,6h52a1.9988,1.9988,0,0,0,2-2V18A1.9988,1.9988,0,0,0,76.5,16Zm-52-4h42v4h-42a2,2,0,0,1,0-4Zm50,72h-50a2.0026,2.0026,0,0,1-2-2V19.6316A5.9308,5.9308,0,0,0,24.5,20h50Z"/><path d="M52.5,28a1.9988,1.9988,0,0,0-2,2V74a2,2,0,0,0,4,0V56h10a1.9988,1.9988,0,0,0,2-2V42A14.017,14.017,0,0,0,52.5,28Zm10,24h-8V32.2012A10.0171,10.0171,0,0,1,62.5,42Z"/>
  <path d="M38.5,28c-5.1523,0-8,8.2773-8,14,0,6.0662,2.9138,8.8813,6,9.7041V74a2,2,0,0,0,4,0V51.7041c3.0862-.8228,6-3.6379,6-9.7041C46.5,36.2773,43.6523,28,38.5,28Zm0,20c-3.48,0-4-3.76-4-6,0-5.4727,2.6484-10,4-10s4,4.5273,4,10C42.5,44.24,41.9805,48,38.5,48Z"/></g>
</svg>
