<svg xmlns="http://www.w3.org/2000/svg" xmlns:xlink="http://www.w3.org/1999/xlink" version="1.1" x="0px" y="0px" viewBox="0 0 1024 1280" style="enable-background:new 0 0 1024 1024;" xml:space="preserve" width="30px" height="30px" fill="#e4c600"><g><path d="M788.2,910.7L512,778.1L235.8,910.7l66.3-286.3l-209.9-209L390.5,373L512,113.3L633.5,373l298.3,42.4   l-209.9,209L788.2,910.7z"/><g><path d="M795.8,897.7c-31.5-15.1-63.1-30.3-94.6-45.4c-49.6-23.8-99.1-47.6-148.7-71.4    c-10.8-5.2-21.6-10.6-32.6-15.6c-7.4-3.4-12.9-1.4-19.3,1.7c-5.6,2.7-11.2,5.4-16.8,8.1c-47.5,22.8-95,45.6-142.6,68.4    c-37.1,17.8-74.1,35.6-111.2,53.4c-0.6,0.3-1.2,0.6-1.8,0.9c7.3,5.6,14.7,11.3,22,16.9c7.6-32.9,15.2-65.7,22.8-98.6    c12-51.7,23.9-103.3,35.9-155c2.5-10.8,5.5-21.7,7.6-32.6c1.5-8.3-2-13-7.1-18.1c-4.3-4.3-8.7-8.6-13-12.9    c-36-35.9-72-71.7-108-107.6c-28-27.9-55.5-56.7-84.2-83.9c-0.5-0.4-0.9-0.9-1.4-1.4c-2.2,8.4-4.4,16.7-6.6,25.1    c32.5-4.6,65.1-9.2,97.6-13.9c53-7.5,106.1-15.1,159.1-22.6c13.3-1.9,26.7-3.2,39.9-5.7c10.7-2,13.8-14,17.8-22.6    c20.9-44.6,41.7-89.1,62.6-133.7c10.9-23.2,21.8-46.5,32.6-69.7c6.1-13,12.5-25.8,18.2-38.9c0.3-0.6,0.6-1.2,0.8-1.8    c-8.6,0-17.3,0-25.9,0c14.3,30.6,28.7,61.3,43,91.9c22.1,47.1,44.1,94.3,66.2,141.4c3,6.5,6.1,12.9,9.1,19.4    c2,4.2,3.3,8.2,7.1,11.1c3.9,3,7.7,3.1,12.3,3.7c6.8,1,13.6,1.9,20.4,2.9c51,7.2,102,14.5,152.9,21.7c24.9,3.5,49.8,7.1,74.7,10.6    c13.7,1.9,27.4,4.3,41.1,5.8c0.6,0.1,1.2,0.2,1.9,0.3c-2.2-8.4-4.4-16.7-6.6-25.1c-23.7,23.6-47.5,47.2-71.2,70.9    c-37.7,37.6-75.4,75.1-113.2,112.7c-8.4,8.4-17.1,16.5-25.2,25.1c-5.3,5.7-4.9,11.8-3.4,18.5c1.3,5.6,2.6,11.2,3.9,16.9    c11.4,49.2,22.8,98.3,34.1,147.5c9,38.8,17.3,77.9,27,116.6c0.2,0.6,0.3,1.3,0.4,1.9c1.8,7.9,10.9,12.6,18.5,10.5    c8.1-2.2,12.3-10.5,10.5-18.5c-7.5-32.2-14.9-64.5-22.4-96.7c-11.9-51.4-23.8-102.8-35.7-154.2c-2.7-11.8-5.5-23.6-8.2-35.5    c-1.3,4.9-2.6,9.7-3.9,14.6c23.7-23.6,47.5-47.2,71.2-70.9c37.6-37.4,75.1-74.8,112.7-112.2c8.7-8.6,17.4-17.3,26.1-25.9    c7.2-7.2,5-23.4-6.6-25.1c-33.8-4.8-67.6-9.6-101.4-14.4c-53.4-7.6-106.8-15.2-160.2-22.7c-12.2-1.7-24.4-3.5-36.7-5.2    c3,2.3,6,4.6,9,6.9c-13.7-29.2-27.3-58.4-41-87.6c-21.8-46.6-43.6-93.2-65.4-139.8c-5-10.8-10.1-21.5-15.1-32.3    c-4.6-9.8-21.3-9.8-25.9,0c-13.7,29.2-27.3,58.4-41,87.6c-21.8,46.6-43.6,93.2-65.4,139.8c-5,10.8-10.1,21.5-15.1,32.3    c3-2.3,6-4.6,9-6.9c-33.8,4.8-67.6,9.6-101.4,14.4c-53.4,7.6-106.8,15.2-160.2,22.7c-12.2,1.7-24.4,3.5-36.7,5.2    c-11.6,1.6-13.8,17.9-6.6,25.1c23.7,23.6,47.5,47.2,71.2,70.9c37.6,37.4,75.1,74.8,112.7,112.2c8.7,8.6,17.4,17.3,26.1,25.9    c-1.3-4.9-2.6-9.7-3.9-14.6c-7.5,32.2-14.9,64.5-22.4,96.7c-11.9,51.4-23.8,102.8-35.7,154.2c-2.7,11.8-5.5,23.6-8.2,35.5    c-3.1,13.3,10.3,22.6,22,16.9c31.3-15,62.5-30,93.8-45c49.4-23.7,98.9-47.5,148.3-71.2c11.4-5.5,22.7-10.9,34.1-16.4    c-5,0-10.1,0-15.1,0c31.3,15,62.5,30,93.8,45c49.4,23.7,98.9,47.5,148.3,71.2c11.4,5.5,22.7,10.9,34.1,16.4    c7.3,3.5,16.2,2,20.5-5.4C805,911.7,803.1,901.2,795.8,897.7z"/></g></g></svg>
